<mxfile host="app.diagrams.net" agent="Mozilla/5.0 (Windows NT 10.0; Win64; x64) AppleWebKit/537.36 (KHTML, like Gecko) Chrome/140.0.0.0 Safari/537.36" version="28.2.3" pages="2">
  <diagram name="Page-1" id="8cWakZZZZDsp-CVCH2wc">
    <mxGraphModel dx="758" dy="1462" grid="0" gridSize="10" guides="0" tooltips="1" connect="0" arrows="0" fold="1" page="0" pageScale="1" pageWidth="850" pageHeight="1100" background="#ffffff" math="0" shadow="0">
      <root>
        <mxCell id="0" />
        <mxCell id="1" parent="0" />
        <mxCell id="IISRyeF43eyaf3N8_hxU-3" value="&lt;font style=&quot;font-size: 24px; background-color: light-dark(#ffffff, var(--ge-dark-color, #121212));&quot;&gt;develop&lt;/font&gt;" style="shape=parallelogram;perimeter=parallelogramPerimeter;whiteSpace=wrap;html=1;fixedSize=1;" vertex="1" parent="1">
          <mxGeometry x="510" y="-210" width="120" height="60" as="geometry" />
        </mxCell>
        <mxCell id="IISRyeF43eyaf3N8_hxU-4" value="&lt;font style=&quot;font-size: 29px;&quot;&gt;plan&lt;/font&gt;" style="rounded=0;whiteSpace=wrap;html=1;" vertex="1" parent="1">
          <mxGeometry x="496" y="-531" width="181" height="62" as="geometry" />
        </mxCell>
        <mxCell id="IISRyeF43eyaf3N8_hxU-6" value="&lt;font style=&quot;font-size: 22px;&quot;&gt;develop&lt;/font&gt;" style="rounded=1;whiteSpace=wrap;html=1;" vertex="1" parent="1">
          <mxGeometry x="499" y="-440" width="179" height="61" as="geometry" />
        </mxCell>
        <mxCell id="IISRyeF43eyaf3N8_hxU-7" value="&lt;font style=&quot;font-size: 23px;&quot;&gt;test&lt;/font&gt;" style="shape=parallelogram;perimeter=parallelogramPerimeter;whiteSpace=wrap;html=1;fixedSize=1;" vertex="1" parent="1">
          <mxGeometry x="488" y="-293" width="194" height="62" as="geometry" />
        </mxCell>
        <mxCell id="IISRyeF43eyaf3N8_hxU-10" value="&lt;font style=&quot;font-size: 21px;&quot;&gt;bult&lt;/font&gt;" style="shape=trapezoid;perimeter=trapezoidPerimeter;whiteSpace=wrap;html=1;fixedSize=1;" vertex="1" parent="1">
          <mxGeometry x="488" y="-367" width="207" height="58" as="geometry" />
        </mxCell>
        <mxCell id="IISRyeF43eyaf3N8_hxU-12" value="&lt;font style=&quot;font-size: 20px;&quot;&gt;deploy&lt;/font&gt;" style="rhombus;whiteSpace=wrap;html=1;" vertex="1" parent="1">
          <mxGeometry x="509" y="-49" width="109" height="104" as="geometry" />
        </mxCell>
        <mxCell id="IISRyeF43eyaf3N8_hxU-13" value="&lt;font style=&quot;font-size: 18px;&quot;&gt;release&lt;/font&gt;" style="shape=hexagon;perimeter=hexagonPerimeter2;whiteSpace=wrap;html=1;fixedSize=1;" vertex="1" parent="1">
          <mxGeometry x="481" y="-117" width="160" height="53" as="geometry" />
        </mxCell>
        <mxCell id="IISRyeF43eyaf3N8_hxU-14" value="&lt;font style=&quot;font-size: 18px;&quot;&gt;operator-person\actor&lt;/font&gt;" style="shape=step;perimeter=stepPerimeter;whiteSpace=wrap;html=1;fixedSize=1;size=8.20001220703125;" vertex="1" parent="1">
          <mxGeometry x="495" y="82" width="152" height="45" as="geometry" />
        </mxCell>
        <mxCell id="IISRyeF43eyaf3N8_hxU-15" value="&lt;ul&gt;&lt;li&gt;&lt;font style=&quot;font-size: 25px;&quot;&gt;Monitor&lt;/font&gt;&lt;/li&gt;&lt;/ul&gt;" style="shape=document;whiteSpace=wrap;html=1;boundedLbl=1;" vertex="1" parent="1">
          <mxGeometry x="505" y="157" width="146" height="80" as="geometry" />
        </mxCell>
      </root>
    </mxGraphModel>
  </diagram>
  <diagram id="NdkC0cpBt3326Ge1Fe23" name="Page-2">
    <mxGraphModel dx="1042" dy="596" grid="1" gridSize="10" guides="1" tooltips="1" connect="1" arrows="1" fold="1" page="1" pageScale="1" pageWidth="850" pageHeight="1100" math="0" shadow="0">
      <root>
        <mxCell id="0" />
        <mxCell id="1" parent="0" />
        <mxCell id="eZV6KgQKzzqsERBAoBaM-1" style="edgeStyle=orthogonalEdgeStyle;rounded=0;orthogonalLoop=1;jettySize=auto;html=1;entryX=0.5;entryY=0;entryDx=0;entryDy=0;" edge="1" parent="1" source="eZV6KgQKzzqsERBAoBaM-2" target="eZV6KgQKzzqsERBAoBaM-5">
          <mxGeometry relative="1" as="geometry" />
        </mxCell>
        <mxCell id="eZV6KgQKzzqsERBAoBaM-2" value="&lt;font style=&quot;font-size: 25px;&quot;&gt;&lt;i&gt;DR Eats&lt;/i&gt;&lt;/font&gt;" style="rounded=0;whiteSpace=wrap;html=1;" vertex="1" parent="1">
          <mxGeometry x="410" y="70" width="120" height="60" as="geometry" />
        </mxCell>
        <mxCell id="eZV6KgQKzzqsERBAoBaM-3" value="" style="edgeStyle=orthogonalEdgeStyle;rounded=0;orthogonalLoop=1;jettySize=auto;html=1;" edge="1" parent="1" source="eZV6KgQKzzqsERBAoBaM-5" target="eZV6KgQKzzqsERBAoBaM-8">
          <mxGeometry relative="1" as="geometry" />
        </mxCell>
        <mxCell id="eZV6KgQKzzqsERBAoBaM-4" value="" style="edgeStyle=orthogonalEdgeStyle;rounded=0;orthogonalLoop=1;jettySize=auto;html=1;" edge="1" parent="1" source="eZV6KgQKzzqsERBAoBaM-5" target="eZV6KgQKzzqsERBAoBaM-10">
          <mxGeometry relative="1" as="geometry" />
        </mxCell>
        <mxCell id="eZV6KgQKzzqsERBAoBaM-5" value="Designing UI/UX" style="ellipse;whiteSpace=wrap;html=1;aspect=fixed;" vertex="1" parent="1">
          <mxGeometry x="430" y="190" width="80" height="80" as="geometry" />
        </mxCell>
        <mxCell id="eZV6KgQKzzqsERBAoBaM-6" style="edgeStyle=orthogonalEdgeStyle;rounded=0;orthogonalLoop=1;jettySize=auto;html=1;exitX=0.5;exitY=1;exitDx=0;exitDy=0;entryX=0.5;entryY=0;entryDx=0;entryDy=0;entryPerimeter=0;" edge="1" parent="1">
          <mxGeometry relative="1" as="geometry">
            <mxPoint x="470" y="620" as="sourcePoint" />
            <mxPoint x="470" y="660" as="targetPoint" />
          </mxGeometry>
        </mxCell>
        <mxCell id="eZV6KgQKzzqsERBAoBaM-7" style="edgeStyle=orthogonalEdgeStyle;rounded=0;orthogonalLoop=1;jettySize=auto;html=1;exitX=0.5;exitY=1;exitDx=0;exitDy=0;entryX=0;entryY=0.5;entryDx=0;entryDy=0;" edge="1" parent="1" source="eZV6KgQKzzqsERBAoBaM-8" target="eZV6KgQKzzqsERBAoBaM-12">
          <mxGeometry relative="1" as="geometry" />
        </mxCell>
        <mxCell id="eZV6KgQKzzqsERBAoBaM-8" value="Customer sign up" style="ellipse;whiteSpace=wrap;html=1;" vertex="1" parent="1">
          <mxGeometry x="270" y="190" width="80" height="80" as="geometry" />
        </mxCell>
        <mxCell id="eZV6KgQKzzqsERBAoBaM-9" style="edgeStyle=orthogonalEdgeStyle;rounded=0;orthogonalLoop=1;jettySize=auto;html=1;exitX=0.5;exitY=1;exitDx=0;exitDy=0;entryX=1;entryY=0.5;entryDx=0;entryDy=0;" edge="1" parent="1" source="eZV6KgQKzzqsERBAoBaM-10" target="eZV6KgQKzzqsERBAoBaM-12">
          <mxGeometry relative="1" as="geometry" />
        </mxCell>
        <mxCell id="eZV6KgQKzzqsERBAoBaM-10" value="Listing Restaurants and their cusines" style="ellipse;whiteSpace=wrap;html=1;" vertex="1" parent="1">
          <mxGeometry x="590" y="190" width="80" height="80" as="geometry" />
        </mxCell>
        <mxCell id="eZV6KgQKzzqsERBAoBaM-11" style="edgeStyle=orthogonalEdgeStyle;rounded=0;orthogonalLoop=1;jettySize=auto;html=1;exitX=0.5;exitY=1;exitDx=0;exitDy=0;entryX=0.5;entryY=0;entryDx=0;entryDy=0;" edge="1" parent="1" source="eZV6KgQKzzqsERBAoBaM-12" target="eZV6KgQKzzqsERBAoBaM-14">
          <mxGeometry relative="1" as="geometry" />
        </mxCell>
        <mxCell id="eZV6KgQKzzqsERBAoBaM-12" value="Checkout Page &amp;amp; RTS" style="ellipse;whiteSpace=wrap;html=1;aspect=fixed;" vertex="1" parent="1">
          <mxGeometry x="430" y="300" width="80" height="80" as="geometry" />
        </mxCell>
        <mxCell id="eZV6KgQKzzqsERBAoBaM-13" style="edgeStyle=orthogonalEdgeStyle;rounded=0;orthogonalLoop=1;jettySize=auto;html=1;exitX=0.5;exitY=1;exitDx=0;exitDy=0;entryX=0.5;entryY=0;entryDx=0;entryDy=0;" edge="1" parent="1" source="eZV6KgQKzzqsERBAoBaM-14" target="eZV6KgQKzzqsERBAoBaM-15">
          <mxGeometry relative="1" as="geometry" />
        </mxCell>
        <mxCell id="eZV6KgQKzzqsERBAoBaM-14" value="Compiling to Apk" style="ellipse;whiteSpace=wrap;html=1;" vertex="1" parent="1">
          <mxGeometry x="410" y="440" width="120" height="80" as="geometry" />
        </mxCell>
        <mxCell id="eZV6KgQKzzqsERBAoBaM-15" value="No Bugs Found" style="rhombus;whiteSpace=wrap;html=1;" vertex="1" parent="1">
          <mxGeometry x="430" y="550" width="80" height="80" as="geometry" />
        </mxCell>
        <mxCell id="eZV6KgQKzzqsERBAoBaM-16" style="edgeStyle=orthogonalEdgeStyle;rounded=0;orthogonalLoop=1;jettySize=auto;html=1;exitX=0.5;exitY=1;exitDx=0;exitDy=0;entryX=0.5;entryY=0;entryDx=0;entryDy=0;" edge="1" parent="1" source="eZV6KgQKzzqsERBAoBaM-17">
          <mxGeometry relative="1" as="geometry">
            <mxPoint x="470" y="770" as="targetPoint" />
          </mxGeometry>
        </mxCell>
        <mxCell id="eZV6KgQKzzqsERBAoBaM-17" value="Writing Permissions for Deployment" style="shape=parallelogram;perimeter=parallelogramPerimeter;whiteSpace=wrap;html=1;fixedSize=1;" vertex="1" parent="1">
          <mxGeometry x="395" y="660" width="150" height="60" as="geometry" />
        </mxCell>
        <mxCell id="eZV6KgQKzzqsERBAoBaM-18" value="Pushed to Appstore" style="shape=cylinder3;whiteSpace=wrap;html=1;boundedLbl=1;backgroundOutline=1;size=15;" vertex="1" parent="1">
          <mxGeometry x="440" y="770" width="60" height="80" as="geometry" />
        </mxCell>
        <mxCell id="eZV6KgQKzzqsERBAoBaM-19" style="edgeStyle=orthogonalEdgeStyle;rounded=0;orthogonalLoop=1;jettySize=auto;html=1;" edge="1" parent="1" source="eZV6KgQKzzqsERBAoBaM-20" target="eZV6KgQKzzqsERBAoBaM-22">
          <mxGeometry relative="1" as="geometry" />
        </mxCell>
        <mxCell id="eZV6KgQKzzqsERBAoBaM-20" value="Customer Using Application" style="shape=umlActor;verticalLabelPosition=bottom;verticalAlign=top;html=1;outlineConnect=0;" vertex="1" parent="1">
          <mxGeometry x="430" y="880" width="80" height="100" as="geometry" />
        </mxCell>
        <mxCell id="eZV6KgQKzzqsERBAoBaM-21" style="edgeStyle=orthogonalEdgeStyle;rounded=0;orthogonalLoop=1;jettySize=auto;html=1;exitX=0.5;exitY=1;exitDx=0;exitDy=0;exitPerimeter=0;entryX=0.5;entryY=0;entryDx=0;entryDy=0;entryPerimeter=0;" edge="1" parent="1" source="eZV6KgQKzzqsERBAoBaM-18" target="eZV6KgQKzzqsERBAoBaM-20">
          <mxGeometry relative="1" as="geometry" />
        </mxCell>
        <mxCell id="eZV6KgQKzzqsERBAoBaM-22" value="Recieved No Feedback" style="ellipse;shape=cloud;whiteSpace=wrap;html=1;" vertex="1" parent="1">
          <mxGeometry x="410" y="1000" width="120" height="80" as="geometry" />
        </mxCell>
      </root>
    </mxGraphModel>
  </diagram>
</mxfile>
